<?xml version="1.0" standalone="no"?>
<!DOCTYPE svg PUBLIC "-//W3C//DTD SVG 1.1//EN" "http://www.w3.org/Graphics/SVG/1.1/DTD/svg11.dtd" >
<svg xmlns="http://www.w3.org/2000/svg">
<metadata></metadata>
<defs>
<font id="habanaregular" horiz-adv-x="2048" >
<font-face units-per-em="2048" ascent="1638" descent="-410" />
<missing-glyph horiz-adv-x="500" />
<glyph />
<glyph />
<glyph unicode="&#xd;" />
<glyph horiz-adv-x="1024" />
<glyph unicode="A" horiz-adv-x="1378" d="M51 0q0 334 90 629q74 238 203 434q55 86 108.5 148.5t96.5 103.5t69.5 61.5t28.5 22.5l45 31l43 -33q2 -2 29 -23.5t68.5 -64.5t94 -106.5t107.5 -149.5q66 -100 116 -209t87 -226q92 -293 92 -618h-149q0 82 -6.5 156.5t-16.5 146.5h-934q-10 -72 -16 -146.5t-6 -156.5 h-150zM250 453h876q-41 170 -100 298t-117 220q-66 100 -125 166.5t-96 101.5q-37 -35 -97.5 -99.5t-123.5 -164.5q-59 -90 -117.5 -219t-99.5 -303z" />
<glyph unicode="B" horiz-adv-x="1449" d="M88 -2v51v1387h303h488q100 0 174.5 -28t124 -76t73 -111.5t23.5 -137.5q0 -109 -46 -182.5t-138 -103.5q139 -33 216.5 -133.5t77.5 -241.5q0 -90 -27.5 -168t-83.5 -134.5t-142.5 -89t-200.5 -32.5h-539h-303zM238 152h305h377q164 0 237.5 78.5t73.5 199.5 q0 59 -19.5 110.5t-58.5 88.5t-99.5 57.5t-142.5 20.5h-368h-305v-555zM238 858h305h346q127 0 180 60.5t53 152.5q0 94 -57 153.5t-197 59.5h-325h-305v-426z" />
<glyph unicode="C" horiz-adv-x="1501" d="M57 719q0 152 58.5 288t169.5 242t252 162.5t297 56.5q174 0 327.5 -68.5t263.5 -197.5l-112 -96q-90 102 -215 158.5t-264 56.5q-129 0 -244 -48t-200 -130t-134 -191.5t-49 -232.5q0 -125 49 -234.5t134 -190.5t200 -128t244 -47q147 0 275 60.5t220 172.5l117 -94 q-53 -66 -121 -120t-145 -91q-164 -80 -346 -80q-156 0 -297.5 56.5t-251.5 162.5q-111 106 -169.5 243.5t-58.5 289.5z" />
<glyph unicode="D" horiz-adv-x="1476" d="M88 0v1434h203h348q180 0 323.5 -51.5t244 -144.5t154.5 -226t54 -295q0 -164 -53 -296t-153.5 -225.5t-245 -144.5t-324.5 -51h-348h-203zM238 150h215h186q160 0 277.5 41.5t195.5 116.5t116 179.5t38 229.5t-38 228.5t-116 178t-195.5 116.5t-277.5 42h-186h-215 v-1132z" />
<glyph unicode="E" horiz-adv-x="1257" d="M88 2v1432h1137v-150h-987v-659h835v-150h-835v-321h987v-152h-1137z" />
<glyph unicode="F" horiz-adv-x="1224" d="M88 0v1432h1137v-150h-987v-659h835v-150h-835v-321v-152h-150z" />
<glyph unicode="G" horiz-adv-x="1525" d="M57 717q0 152 59.5 288t170.5 242t251 162.5t296 56.5q174 0 328.5 -68.5t264.5 -197.5l-112 -100q-90 104 -215 159.5t-266 55.5q-129 0 -243 -47t-199 -128t-134 -190.5t-49 -232.5q0 -125 49 -234.5t134 -190.5t199 -128t243 -47q141 0 265 55t216 158v155h-559v150 h708v-359l-16 -20q-53 -66 -120.5 -120t-145.5 -91q-164 -80 -348 -80q-156 0 -296.5 56.5t-250.5 162.5q-111 106 -170.5 243.5t-59.5 289.5z" />
<glyph unicode="H" horiz-adv-x="1386" d="M88 0v1434h152v-811h907v811h149v-1434h-149v473h-907v-473h-152z" />
<glyph unicode="I" horiz-adv-x="333" d="M88 0v1434h150v-1434h-150z" />
<glyph unicode="J" horiz-adv-x="1095" d="M2 270l133 70q51 -96 142.5 -151.5t201.5 -55.5q80 0 151.5 31t124 83t83 123.5t30.5 151.5v6v2v904h150v-904v-8q0 -111 -42 -209t-116 -171.5t-172 -115.5t-209 -42q-152 0 -278.5 76.5t-198.5 209.5z" />
<glyph unicode="K" horiz-adv-x="1351" d="M88 0v1434h152v-772q479 74 735 546q33 59 56.5 116.5t43.5 111.5h158q-23 -68 -52.5 -142.5t-70.5 -152.5q-139 -258 -342 -414q-45 -35 -92 -64.5t-98 -52.5q20 -6 39.5 -13t37.5 -13q47 -20 92.5 -42t88.5 -50q218 -139 378 -379q18 -29 35 -56.5t33 -56.5h-174 q-6 8 -11 16.5t-12 16.5q-223 334 -557 436q-135 39 -280 41q-4 -2 -8 -2v-508h-152z" />
<glyph unicode="L" horiz-adv-x="1169" d="M88 0v1432h143v-1289h938v-143h-1081z" />
<glyph unicode="M" horiz-adv-x="1417" d="M88 0v1432v2h154q35 -225 104.5 -392.5t138.5 -277.5q66 -102 126.5 -170t99.5 -102q37 33 96 98t125 164q72 111 141.5 278.5t104.5 401.5h151q0 -4 -2 -9v-1425h-141v909q-29 -66 -61.5 -126t-71.5 -117q-55 -84 -108.5 -146.5t-95.5 -103.5t-68.5 -61.5t-28.5 -22.5 l-45 -33l-43 33q-2 2 -29 23.5t-69 64.5t-95 107.5t-109 150.5q-37 59 -69.5 119.5t-61.5 124.5v-922h-143z" />
<glyph unicode="N" horiz-adv-x="1308" d="M88 0v1432l82 -7q2 0 41 -6t103.5 -24.5t148.5 -52t176 -89.5q219 -129 383 -333q10 -14 22.5 -28.5t22.5 -31.5v574h152v-1434h-152v569q-178 362 -504 555q-98 59 -183 90t-142 46v-1260h-150z" />
<glyph unicode="O" horiz-adv-x="1673" d="M59 719q0 135 46.5 258t136.5 225q53 63 119.5 111.5t140.5 83.5h2q0 2 2 2q2 2 4 2t6 2q2 2 4 2t4 2q2 0 3 1t3 1q4 2 7.5 3t7.5 3l4 2q8 4 14 4q2 2 4 2q12 4 17 7h2q25 8 49 15t51 11h4q4 2 6 2q4 0 9 2h8q4 0 6 1t6 1h8q4 2 10 2h11q4 2 10 2h10q4 2 10 2h11h8h12 q10 0 14 2h7h6q4 -2 12 -2h12h8h13q6 0 8 -2h12q6 0 8 -2h11q8 0 10 -2h10q4 0 6 -1t6 -1h7q4 -2 8 -2t8 -2h4q20 -4 39.5 -9t40.5 -11l18 -6h2l19 -7l2 -2q6 0 14 -4q2 -2 6 -2q8 -4 13 -4q4 -4 8 -4l8 -4l4 -2q2 0 6 -2l2 -2q74 -35 140.5 -83t122.5 -112h-3 q90 -102 137.5 -225t47.5 -258q0 -127 -42 -244t-122 -215q-53 -68 -120.5 -121t-145.5 -92q-8 -4 -16.5 -7t-16.5 -7q-123 -51 -256 -62h-2q-4 0 -8 -1t-9 -1h-6h-12h-16h-4h-7h-14h-14h-6q-4 0 -8.5 1t-8.5 1h-2q-61 4 -120.5 17.5t-116.5 36.5q-4 2 -8.5 4t-8.5 4h-2 q-8 4 -15 7t-18 7q-78 39 -145.5 92.5t-120.5 120.5q-78 98 -120 215t-42 244zM209 719q0 -121 46 -226.5t127 -186.5t189.5 -130t231.5 -55h2q4 0 7 -1t7 -1h10h7h6h10q4 0 7 1t7 1q125 6 233.5 55t188.5 130t126 186.5t46 226.5t-46 227.5t-126 187t-188.5 130 t-233.5 55.5h-14h-8h-8h-11h-6h-14h-2q-123 -6 -231.5 -55.5t-189.5 -130t-127 -187t-46 -227.5zM655 719q0 70 49.5 119t120.5 53h6h3h2h2h2h4q72 -4 121 -53.5t49 -118.5q0 -70 -49.5 -119t-120.5 -53h-4h-2h-2h-2h-3h-6q-72 4 -121 53t-49 119z" />
<glyph unicode="P" horiz-adv-x="1284" d="M88 2v1434h301h490q100 0 174.5 -28t124 -76t73 -111.5t23.5 -137.5v-22q0 -74 -23.5 -138.5t-73 -112.5t-124 -75.5t-174.5 -27.5h-490h-151v-555v-150h-150zM238 858h305h346q125 0 178 60.5t53 152.5q0 94 -57 153.5t-195 59.5h-325h-305v-426z" />
<glyph unicode="Q" horiz-adv-x="1681" d="M59 719q0 135 47.5 258t137.5 225h-2q111 127 262 195l2 2l4 2q2 0 6 2q2 2 4 2t4 2q2 0 4 1t4 1l13 6q2 0 4 2q12 4 16 4q0 2 2 2l19 7h2q23 8 48.5 15t49.5 11h4q4 2 8 2t9 2h6q4 0 6 1t6 1h10q2 2 10 2h11q2 2 8 2h12q2 2 8 2h13h8h12q8 0 12 2h7h6q4 -2 14 -2h10h11 h10q6 0 10 -2h10q6 0 11 -2h8q8 0 10 -2h10q4 0 6 -1t6 -1h7q4 -2 8 -2t8 -2h4q20 -4 39.5 -9t40.5 -11q4 -2 10 -3t10 -3h2q4 -2 17 -7q2 0 4 -2q6 0 14 -4q2 -2 4 -2q4 -2 6.5 -3t6.5 -1l8 -4q2 -2 4 -2t4 -2q4 -2 6 -2t4 -2q2 0 2 -2q152 -68 263 -195q90 -102 136 -225 t46 -258q0 -127 -42 -244t-120 -215q-8 -10 -16.5 -19.5t-16.5 -19.5q113 -115 197 -252h-178q-29 41 -62 79t-69 73q-29 -20 -58.5 -39t-62.5 -35l-17.5 -7l-17.5 -7q-119 -51 -256 -62q-4 0 -8 -1t-8 -1h-7h-14h-16h-4h-5h-16h-12h-6q-4 0 -9.5 1t-9.5 1 q-61 4 -120.5 17.5t-116.5 36.5h-2q-4 2 -8.5 4t-8.5 4q-10 4 -17 7t-16 7q-78 39 -145.5 92.5t-120.5 120.5q-80 98 -122 215t-42 244zM211 688q92 -2 242.5 -20.5t330.5 -73.5q295 -94 521 -272q72 80 114.5 181t42.5 216q0 121 -46 227.5t-127 187t-189.5 130 t-231.5 55.5h-2h-14h-6h-10h-9h-8h-14q-125 -6 -233.5 -55.5t-188.5 -130t-126 -187t-46 -227.5v-31zM240 537q29 -86 83 -161t127.5 -130.5t164 -88t188.5 -36.5h2q4 0 7 -1t7 -1h10h7h6h10q4 0 7 1t7 1h2q88 4 169 30.5t151 71.5q-94 72 -205 128.5t-240 97.5 q-152 47 -283.5 65t-219.5 23z" />
<glyph unicode="R" horiz-adv-x="1357" d="M88 -2v1434h74h78h471h106t107 -5q16 -2 30.5 -3t30.5 -5q45 -10 87 -27.5t75 -45.5q41 -35 70.5 -78t46.5 -94q18 -59 18 -125q0 -86 -26.5 -162t-81 -131.5t-135.5 -89t-189 -35.5q8 -6 14.5 -11.5t14.5 -11.5q41 -33 76.5 -66.5t70.5 -74.5q170 -195 252 -469h-158 q-121 354 -395 537q-86 55 -186 96h-299v-633h-152zM240 786h274h336q147 0 212.5 71t65.5 177q0 109 -68.5 177.5t-215.5 68.5h-330h-274v-494z" />
<glyph unicode="S" horiz-adv-x="1073" d="M47 262l131 68q25 -47 58.5 -88t77.5 -73t103.5 -50.5t137.5 -18.5q63 0 119.5 17.5t97.5 50.5t64.5 79t23.5 105q0 113 -68.5 179.5t-207.5 127.5l-117 54q-78 37 -138.5 74.5t-101.5 85t-62.5 106.5t-21.5 137q0 80 30 144.5t81 110.5t121.5 71.5t154.5 25.5 q147 0 242.5 -61t155.5 -160l-125 -78q-43 68 -105.5 114t-167.5 46q-111 0 -172 -57.5t-61 -151.5q0 -49 13.5 -86t42 -66.5t72.5 -56t105 -55.5l117 -53q92 -41 161 -85t115 -98.5t69.5 -120t23.5 -147.5q0 -90 -34 -162.5t-95.5 -123t-144.5 -77t-181 -26.5 q-106 0 -188 24.5t-145.5 66.5t-107.5 95.5t-73 112.5z" />
<glyph unicode="T" horiz-adv-x="1333" d="M20 1284v150h1291v-150h-570v-1280h-151v1280h-570z" />
<glyph unicode="U" horiz-adv-x="1236" d="M78 524v8v904h151v-906v-6q0 -98 45 -182q51 -96 142.5 -151.5t201.5 -55.5q109 0 200 55.5t143 151.5h2q43 80 43 182v6v2v904h151v-904v-8q0 -111 -41 -207t-111.5 -168.5t-165 -116.5t-202.5 -46h-2q-4 0 -8 -1t-9 -1h-2q-4 0 -8 1t-8 1h-2q-109 2 -203 46 t-164.5 116.5t-111.5 169t-41 206.5z" />
<glyph unicode="V" horiz-adv-x="1378" d="M49 1434h150q0 -170 24.5 -314.5t63.5 -265.5t86 -217t92 -168q66 -102 126 -171t99 -103q37 35 96.5 99t124.5 165q45 70 92.5 166t86 218t63.5 269.5t25 321.5h149q0 -338 -92 -629q-35 -119 -86 -227.5t-117 -206.5q-55 -86 -108.5 -148.5t-95.5 -103.5t-68.5 -61.5 t-28.5 -22.5l-45 -31l-43 33q-2 2 -28.5 23.5t-68.5 64.5t-95.5 106.5t-108.5 149.5q-66 100 -116 209.5t-87 226.5q-90 293 -90 617z" />
<glyph unicode="W" d="M61 1436h150q0 -170 24.5 -314.5t63.5 -265.5t86 -217t92 -168q66 -102 126.5 -171t98.5 -103q37 35 96.5 99t125.5 165l8 12t8 14q-86 156 -141 330q-92 291 -92 619h151q0 -250 50 -446.5t118 -340.5q66 141 115 337t49 450h149q0 -334 -90 -629q-27 -86 -60.5 -166 t-74.5 -154q4 -4 5 -8t5 -8q66 -102 126.5 -171t97.5 -103q39 35 98 99t125 165q45 70 92 166t86 218t63.5 269.5t24.5 321.5h150q0 -338 -93 -629q-74 -238 -202 -434q-55 -86 -108.5 -148.5t-95.5 -103.5t-68.5 -61.5t-28.5 -22.5l-45 -31l-43 33q-2 2 -26 21.5 t-62.5 57.5t-87 94t-99.5 132q-53 -78 -103.5 -135t-90 -95t-64.5 -56.5t-27 -20.5l-45 -31l-43 33q-2 2 -28.5 23.5t-68.5 64.5t-95 106.5t-109 149.5q-63 100 -114.5 208.5t-85.5 225.5q-92 291 -93 619z" />
<glyph unicode="X" horiz-adv-x="1294" d="M61 0l494 780l-416 656h180l287 -447q14 -23 25.5 -49.5t17.5 -40.5q4 14 15.5 41t25.5 49l283 447h176l-414 -656l498 -780h-180l-2 2l-365 571q-14 23 -26.5 50.5t-18.5 42.5q-4 -14 -16.5 -42t-24.5 -51l-364 -573h-175z" />
<glyph unicode="Y" horiz-adv-x="1216" d="M27 1432h170l356 -652q10 -20 21.5 -44.5t21.5 -47.5q10 -27 18 -53q8 27 19 51q8 23 19.5 47.5t21.5 46.5l354 652h160l-498 -916v-412v-102h-158v96v412z" />
<glyph unicode="Z" horiz-adv-x="1253" d="M41 -2v27v2l885 1269h-760v142h1030v-29l-881 -1270h887v-141h-1161z" />
<glyph unicode="a" horiz-adv-x="1380" d="M51 0q0 334 90 629q74 238 203 434q55 86 108.5 148.5t96.5 103.5t69.5 61.5t28.5 22.5l45 31l43 -33q2 -2 29 -23.5t68.5 -64.5t94 -106.5t107.5 -149.5q66 -100 116 -209t87 -226q92 -293 92 -618h-149q0 82 -6.5 156.5t-16.5 146.5h-934q-10 -72 -16 -146.5t-6 -156.5 h-150zM250 453h876q-41 170 -100 298t-117 220q-66 100 -125 166.5t-96 101.5q-37 -35 -97.5 -99.5t-123.5 -164.5q-59 -90 -117.5 -219t-99.5 -303z" />
<glyph unicode="b" horiz-adv-x="1454" d="M90 -2v51v1387h303h488q100 0 174.5 -28t124 -76t73 -111.5t23.5 -137.5q0 -109 -46 -182.5t-138 -103.5q139 -33 216.5 -133.5t77.5 -241.5q0 -90 -27.5 -168t-83.5 -134.5t-142 -89t-201 -32.5h-539h-303zM240 152h305h377q164 0 237.5 78.5t73.5 199.5 q0 59 -19.5 110.5t-58.5 88.5t-99.5 57.5t-142.5 20.5h-368h-305v-555zM240 858h305h346q127 0 180 60.5t53 152.5q0 94 -57 153.5t-197 59.5h-325h-305v-426z" />
<glyph unicode="c" horiz-adv-x="1505" d="M59 719q0 152 58.5 288t169.5 242t252 162.5t297 56.5q174 0 327.5 -68.5t263.5 -197.5l-112 -96q-90 102 -215 158.5t-264 56.5q-129 0 -244 -48t-200 -130t-134 -191.5t-49 -232.5q0 -125 49 -234.5t134 -190.5t200 -128t244 -47q147 0 275 60.5t220 172.5l117 -94 q-53 -66 -120.5 -120t-145.5 -91q-164 -80 -346 -80q-156 0 -297.5 56.5t-251.5 162.5q-111 106 -169.5 243.5t-58.5 289.5z" />
<glyph unicode="d" horiz-adv-x="1478" d="M90 0v1434h203h348q180 0 323.5 -51.5t244 -144.5t154.5 -226t54 -295q0 -164 -53 -296t-153.5 -225.5t-245 -144.5t-324.5 -51h-348h-203zM240 150h215h186q160 0 277.5 41.5t195.5 116.5t116 179.5t38 229.5t-38 228.5t-116 178t-195.5 116.5t-277.5 42h-186h-215 v-1132z" />
<glyph unicode="e" horiz-adv-x="1259" d="M90 2v1432h1137v-150h-987v-659h835v-150h-835v-321h987v-152h-1137z" />
<glyph unicode="f" horiz-adv-x="1226" d="M90 0v1432h1137v-150h-987v-659h835v-150h-835v-321v-152h-150z" />
<glyph unicode="g" horiz-adv-x="1527" d="M59 717q0 152 59.5 288t170.5 242t251 162.5t296 56.5q174 0 328.5 -68.5t265.5 -197.5l-113 -100q-90 104 -215 159.5t-266 55.5q-129 0 -243 -47t-199 -128t-134 -190.5t-49 -232.5q0 -125 49 -234.5t134 -190.5t199 -128t243 -47q141 0 265 55t216 158v155h-559v150 h708v-359l-16 -20q-53 -66 -120.5 -120t-145.5 -91q-164 -80 -348 -80q-156 0 -296.5 56.5t-250.5 162.5q-111 106 -170.5 243.5t-59.5 289.5z" />
<glyph unicode="h" horiz-adv-x="1390" d="M90 0v1434h152v-811h907v811h149v-1434h-149v473h-907v-473h-152z" />
<glyph unicode="i" horiz-adv-x="339" d="M90 0v1434h150v-1434h-150z" />
<glyph unicode="j" horiz-adv-x="1097" d="M2 270l133 70q51 -96 142.5 -151.5t201.5 -55.5q80 0 151.5 31t124 83t83 123.5t30.5 151.5v6v2v904h150v-904v-8q0 -111 -42 -209t-116 -171.5t-172 -115.5t-209 -42q-152 0 -278.5 76.5t-198.5 209.5z" />
<glyph unicode="k" horiz-adv-x="1355" d="M90 0v1434h152v-772q479 74 735 546q33 59 56.5 116.5t43.5 111.5h158q-23 -68 -52.5 -142.5t-70.5 -152.5q-139 -258 -342 -414q-45 -35 -92 -64.5t-98 -52.5q20 -6 39.5 -13t37.5 -13q47 -20 92.5 -42t88.5 -50q219 -139 379 -379q18 -29 34.5 -56.5t32.5 -56.5h-174 q-6 8 -11 16.5t-12 16.5q-223 334 -557 436q-135 39 -280 41q-4 -2 -8 -2v-508h-152z" />
<glyph unicode="l" horiz-adv-x="1171" d="M90 0v1432h143v-1289h938v-143h-1081z" />
<glyph unicode="m" horiz-adv-x="1421" d="M90 0v1432v2h154q35 -225 104.5 -392.5t138.5 -277.5q66 -102 126.5 -170t99.5 -102q37 33 96 98t125 164q72 111 141.5 278.5t104.5 401.5h151q0 -4 -2 -9v-1425h-141v909q-29 -66 -61.5 -126t-71.5 -117q-55 -84 -108.5 -146.5t-95.5 -103.5t-68.5 -61.5t-28.5 -22.5 l-45 -33l-43 33q-2 2 -29 23.5t-69 64.5t-95 107.5t-108 150.5q-37 59 -70 119.5t-62 124.5v-922h-143z" />
<glyph unicode="n" horiz-adv-x="1312" d="M90 0v1432l82 -7q2 0 41 -6t103.5 -24.5t148.5 -52t176 -89.5q219 -129 383 -333q10 -14 22.5 -28.5t22.5 -31.5v574h152v-1434h-152v569q-178 362 -504 555q-98 59 -183 90t-142 46v-1260h-150z" />
<glyph unicode="o" horiz-adv-x="1675" d="M61 719q0 135 46.5 258t136.5 225q53 63 119.5 111.5t140.5 83.5h2q0 2 2 2q2 2 4 2t6 2q2 2 4 2t4 2q2 0 3 1t3 1q4 2 7.5 3t7.5 3l4 2q8 4 14 4q2 2 4 2q12 4 17 7h2q25 8 49.5 15t50.5 11h4q4 2 6 2q4 0 9 2h8q4 0 6 1t6 1h8q4 2 10 2h11q4 2 10 2h10q4 2 10 2h11h8 h12q10 0 14 2h7h6q4 -2 12 -2h12h9h12q6 0 8 -2h12q6 0 9 -2h10q8 0 10 -2h10q4 0 6 -1t7 -1h6q4 -2 8 -2t8 -2h4q20 -4 40 -9t40 -11l18 -6h2l19 -7l2 -2q6 0 14 -4q2 -2 6 -2q8 -4 13 -4q4 -4 8 -4l8 -4l4 -2q2 0 6 -2l2 -2q74 -35 140.5 -83t122.5 -112h-2 q90 -102 137 -225t47 -258q0 -127 -42 -244t-122 -215q-53 -68 -120.5 -121t-145.5 -92q-8 -4 -16.5 -7t-16.5 -7q-123 -51 -256 -62h-2q-4 0 -8 -1t-8 -1h-7h-12h-16h-4h-7h-14h-14h-6q-4 0 -8.5 1t-8.5 1h-2q-61 4 -120.5 17.5t-116.5 36.5q-4 2 -8.5 4t-8.5 4h-2 q-8 4 -15 7t-18 7q-78 39 -145.5 92.5t-120.5 120.5q-78 98 -120 215t-42 244zM211 719q0 -121 46 -226.5t127 -186.5t189.5 -130t231.5 -55h2q4 0 7 -1t7 -1h10h7h6h10q4 0 7 1t7 1q125 6 233.5 55t188.5 130t126 186.5t46 226.5t-46 227.5t-126 187t-188.5 130 t-233.5 55.5h-14h-8h-8h-11h-6h-14h-2q-123 -6 -231.5 -55.5t-189.5 -130t-127 -187t-46 -227.5zM657 719q0 70 49.5 119t120.5 53h7h2h2h2h2h4q72 -4 121 -53.5t49 -118.5q0 -70 -49 -119t-121 -53h-4h-2h-2h-2h-2h-7q-72 4 -121 53t-49 119z" />
<glyph unicode="p" horiz-adv-x="1286" d="M90 2v1434h301h490q100 0 174.5 -28t124 -76t73 -111.5t23.5 -137.5v-22q0 -74 -23.5 -138.5t-73 -112.5t-124 -75.5t-174.5 -27.5h-490h-151v-555v-150h-150zM240 858h305h346q125 0 178 60.5t53 152.5q0 94 -57 153.5t-195 59.5h-325h-305v-426z" />
<glyph unicode="q" horiz-adv-x="1685" d="M61 719q0 135 47.5 258t137.5 225h-2q111 127 262 195l2 2l4 2q2 0 6 2q2 2 4 2t4 2q2 0 4 1t5 1l12 6q2 0 4 2q12 4 16 4q0 2 2 2l19 7h2q23 8 48.5 15t49.5 11h4q4 2 8 2t9 2h6q4 0 6 1t6 1h10q2 2 11 2h10q2 2 8 2h12q2 2 8 2h13h8h12q8 0 12 2h7h6q4 -2 14 -2h10h11 h10q6 0 10 -2h10q6 0 11 -2h8q8 0 10 -2h10q4 0 6 -1t7 -1h6q4 -2 8 -2t8 -2h4q20 -4 40 -9t40 -11q4 -2 10 -3t10 -3h3q4 -2 16 -7q2 0 4 -2q6 0 14 -4q2 -2 4 -2q4 -2 6.5 -3t6.5 -1l8 -4q2 -2 4 -2t4 -2q4 -2 6 -2t4 -2q2 0 2 -2q152 -68 263 -195q90 -102 136 -225 t46 -258q0 -127 -42 -244t-120 -215q-8 -10 -16.5 -19.5t-16.5 -19.5q113 -115 197 -252h-178q-29 41 -62 79t-69 73q-29 -20 -58.5 -39t-62.5 -35l-17.5 -7l-17.5 -7q-119 -51 -256 -62q-4 0 -8 -1t-8 -1h-7h-14h-16h-4h-4h-17h-12h-6q-4 0 -9.5 1t-9.5 1 q-61 4 -120.5 17.5t-116.5 36.5h-2q-4 2 -8.5 4t-8.5 4q-10 4 -17 7t-15 7q-78 39 -145.5 92.5t-121.5 120.5q-80 98 -122 215t-42 244zM213 688q92 -2 242.5 -20.5t330.5 -73.5q295 -94 521 -272q72 80 114.5 181t42.5 216q0 121 -46 227.5t-127 187t-189.5 130 t-231.5 55.5h-2h-14h-6h-10h-9h-8h-14q-125 -6 -233.5 -55.5t-188.5 -130t-126 -187t-46 -227.5v-31zM242 537q29 -86 83 -161t127.5 -130.5t164 -88t188.5 -36.5h2q4 0 7 -1t7 -1h10h7h6h10q4 0 7 1t7 1h2q88 4 169 30.5t151 71.5q-94 72 -205 128.5t-240 97.5 q-152 47 -283.5 65t-219.5 23z" />
<glyph unicode="r" horiz-adv-x="1193" d="M0 -2v1434h74h78h471h106t107 -5q16 -2 30.5 -3t30.5 -5q45 -10 87 -27.5t75 -45.5q41 -35 70.5 -78t46.5 -94q18 -59 18 -125q0 -86 -26.5 -162t-81 -131.5t-135.5 -89t-189 -35.5q8 -6 14.5 -11.5t14.5 -11.5q41 -33 76.5 -66.5t70.5 -74.5q170 -195 252 -469h-158 q-121 354 -395 537q-86 55 -186 96h-299v-633h-152zM152 786h274h336q147 0 212.5 71t65.5 177q0 109 -68.5 177.5t-215.5 68.5h-330h-274v-494z" />
<glyph unicode="s" horiz-adv-x="966" d="M-2 262l131 68q25 -47 58.5 -88t77.5 -73t103.5 -50.5t137.5 -18.5q63 0 119.5 17.5t97.5 50.5t64.5 79t23.5 105q0 113 -68.5 179.5t-207.5 127.5l-117 54q-78 37 -138.5 74.5t-101.5 85t-62.5 106.5t-21.5 137q0 80 30 144.5t81 110.5t121.5 71.5t154.5 25.5 q147 0 242.5 -61t155.5 -160l-125 -78q-43 68 -105.5 114t-167.5 46q-111 0 -172 -57.5t-61 -151.5q0 -49 13 -86t42 -66.5t73 -56t105 -55.5l117 -53q92 -41 160.5 -85t115 -98.5t70 -120t23.5 -147.5q0 -90 -34 -162.5t-95.5 -123t-144.5 -77t-181 -26.5q-106 0 -188 24.5 t-145.5 66.5t-107.5 95.5t-73 112.5z" />
<glyph unicode="t" horiz-adv-x="1335" d="M23 1284v150h1290v-150h-570v-1280h-151v1280h-569z" />
<glyph unicode="u" horiz-adv-x="1239" d="M80 524v8v904h151v-906v-6q0 -98 45 -182q51 -96 142.5 -151.5t202.5 -55.5q109 0 199.5 55.5t142.5 151.5h2q43 80 43 182v6v2v904h151v-904v-8q0 -111 -41 -207t-111.5 -168.5t-164.5 -116.5t-203 -46h-2q-4 0 -8 -1t-8 -1h-3q-4 0 -8 1t-8 1h-2q-109 2 -203 46 t-164.5 116.5t-111.5 169t-41 206.5z" />
<glyph unicode="v" horiz-adv-x="1380" d="M51 1434h150q0 -170 24.5 -314.5t63.5 -265.5t86 -217t92 -168q66 -102 126 -171t99 -103q37 35 96.5 99t124.5 165q45 70 92.5 166t86 218t63.5 269.5t25 321.5h149q0 -338 -92 -629q-35 -119 -86 -227.5t-117 -206.5q-55 -86 -108.5 -148.5t-95.5 -103.5t-68.5 -61.5 t-28.5 -22.5l-45 -31l-43 33q-2 2 -28.5 23.5t-68.5 64.5t-95.5 106.5t-108.5 149.5q-66 100 -116 209.5t-87 226.5q-90 293 -90 617z" />
<glyph unicode="w" horiz-adv-x="2050" d="M61 1436h150q0 -170 24.5 -314.5t63.5 -265.5t86 -217t92 -168q66 -102 126.5 -171t98.5 -103q37 35 96.5 99t125.5 165l8 12t8 14q-86 156 -141 330q-92 291 -92 619h151q0 -250 50 -446.5t118 -340.5q66 141 115 337t49 450h149q0 -334 -90 -629q-27 -86 -60.5 -166 t-74.5 -154q4 -4 5 -8t5 -8q66 -102 126.5 -171t97.5 -103q39 35 98 99t125 165q45 70 92 166t86 218t63.5 269.5t24.5 321.5h150q0 -338 -93 -629q-74 -238 -202 -434q-55 -86 -108.5 -148.5t-95.5 -103.5t-68.5 -61.5t-28.5 -22.5l-45 -31l-43 33q-2 2 -26 21.5 t-62.5 57.5t-87 94t-99.5 132q-53 -78 -103.5 -135t-90 -95t-64.5 -56.5t-27 -20.5l-45 -31l-43 33q-2 2 -28.5 23.5t-68.5 64.5t-95 106.5t-109 149.5q-63 100 -114.5 208.5t-85.5 225.5q-92 291 -93 619z" />
<glyph unicode="x" horiz-adv-x="1173" d="M2 0l494 780l-416 656h180l287 -447q14 -23 25.5 -49.5t17.5 -40.5q4 14 15 41t26 49l282 447h177l-414 -656l498 -780h-181l-2 2l-364 571q-14 23 -26.5 50.5t-18.5 42.5q-4 -14 -16.5 -42t-24.5 -51l-365 -573h-174z" />
<glyph unicode="y" horiz-adv-x="1175" d="M4 1432h170l356 -652q10 -20 21.5 -44.5t21.5 -47.5q10 -27 19 -53q8 27 18 51q8 23 19.5 47.5t21.5 46.5l355 652h159l-497 -916v-412v-102h-158v96v412z" />
<glyph unicode="z" horiz-adv-x="1163" d="M0 -2v27v2l885 1269h-760v142h1030v-29l-881 -1270h887v-141h-1161z" />
<glyph unicode="&#x2000;" horiz-adv-x="735" />
<glyph unicode="&#x2001;" horiz-adv-x="1470" />
<glyph unicode="&#x2002;" horiz-adv-x="735" />
<glyph unicode="&#x2003;" horiz-adv-x="1470" />
<glyph unicode="&#x2004;" horiz-adv-x="490" />
<glyph unicode="&#x2005;" horiz-adv-x="367" />
<glyph unicode="&#x2006;" horiz-adv-x="245" />
<glyph unicode="&#x2007;" horiz-adv-x="245" />
<glyph unicode="&#x2008;" horiz-adv-x="183" />
<glyph unicode="&#x2009;" horiz-adv-x="294" />
<glyph unicode="&#x200a;" horiz-adv-x="81" />
<glyph unicode="&#x202f;" horiz-adv-x="294" />
<glyph unicode="&#x205f;" horiz-adv-x="367" />
<glyph unicode="&#xe000;" horiz-adv-x="1433" d="M0 0v1434h1434v-1434h-1434z" />
</font>
</defs>
</svg>
